# xmcd CD database file
#
# Track frame offsets:
#	150
#	17997
#	37438
#	58317
#	80940
#	97416
#	120084
#	140155
#	162697
#	183340
#	201650
#	223602
#	240330
#	259578
#	276805
#	301718
#
# Disc length: 4286 seconds
#
# Revision: 1
# Processed by: cddbd v1.5.2PL0 Copyright (c) Steve Scherf et al.
# Submitted via: CDex 1.70beta2
#
DISCID=fc10bc10
DTITLE=Various Artist - Red blooded blues
DYEAR=1995
DGENRE=Blues
TTITLE0=The Robert Cray band - I wonder
TTITLE1=Otis Rush - Don't burn down the bridge
TTITLE2=Jhon Lee Hooker - Chill out (things gonna change)
TTITLE3=Joan Osborne - Help me
TTITLE4=Aaron Neville - Down into muddy water
TTITLE5=Joe Louis Walker - Red blooded blues
TTITLE6=Pops Staples - Hope in a hopeless world
TTITLE7=Jhon Mayall - Sensitive kind
TTITLE8=Joe Cocker - Black eyed blues
TTITLE9=Paul Rodgers - Just want to make love to you
TTITLE10=Lucky Peterson - Up from the skies
TTITLE11=Jhon Hammond - I've got love if you want it
TTITLE12=B. B. King - I'm moving on
TTITLE13=Etta James - Watever gets you trough the night
TTITLE14=Buddy Guy
TTITLE15=The Jeff Healy band - See the light
EXTD=YEAR: 1995
EXTT0=
EXTT1=
EXTT2=
EXTT3=
EXTT4=
EXTT5=
EXTT6=
EXTT7=
EXTT8=
EXTT9=
EXTT10=
EXTT11=
EXTT12=
EXTT13=
EXTT14=
EXTT15=
PLAYORDER=
